<svg id="Layer_1" data-name="Layer 1" xmlns="http://www.w3.org/2000/svg" xmlns:xlink="http://www.w3.org/1999/xlink" width="873" height="1256.26" viewBox="0 0 873 1256.26">
  <defs>
    <style>
      .cls-1, .cls-5 {
        fill: none;
      }

      .cls-2 {
        fill: #459ce0;
      }

      .cls-3 {
        fill: #c2dbed;
      }

      .cls-4 {
        fill: #07b5b8;
      }

      .cls-5 {
        stroke: #172e4f;
        stroke-miterlimit: 10;
        stroke-width: 8px;
      }

      .cls-6 {
        clip-path: url(#clip-path);
      }

      .cls-7 {
        fill: #0095a1;
      }

      .cls-8 {
        fill: #a5e8cc;
      }

      .cls-9 {
        clip-path: url(#clip-path-2);
      }

      .cls-10 {
        fill: #fff;
      }

      .cls-11 {
        fill: #baffe2;
      }

      .cls-12 {
        fill: #ffff0f;
      }

      .cls-13 {
        fill: #0777b8;
      }

      .cls-14 {
        fill: #305459;
      }

      .cls-15 {
        fill: #007e94;
      }

      .cls-16 {
        fill: #3bd9ad;
      }

      .cls-17 {
        fill: #172e4f;
      }

      .cls-18 {
        fill: #265280;
      }

      .cls-19 {
        clip-path: url(#clip-path-3);
      }

      .cls-20 {
        clip-path: url(#clip-path-4);
      }

      .cls-21 {
        clip-path: url(#clip-path-5);
      }

      .cls-22 {
        clip-path: url(#clip-path-6);
      }

      .cls-23 {
        clip-path: url(#clip-path-7);
      }

      .cls-24 {
        clip-path: url(#clip-path-8);
      }

      .cls-25 {
        fill: #99c7e8;
      }

      .cls-26 {
        fill: #f5f5f3;
      }

      .cls-27 {
        fill: #ebf2f2;
      }

      .cls-28 {
        fill: #f0f0f0;
      }

      .cls-29 {
        clip-path: url(#clip-path-9);
      }

      .cls-30 {
        fill: #ded6d6;
      }

      .cls-31 {
        fill: #d1c9c9;
      }

      .cls-32 {
        clip-path: url(#clip-path-10);
      }

      .cls-33 {
        clip-path: url(#clip-path-11);
      }

      .cls-34 {
        clip-path: url(#clip-path-12);
      }

      .cls-35 {
        fill: #3878b0;
      }

      .cls-36 {
        clip-path: url(#clip-path-13);
      }

      .cls-37 {
        fill: #ffe080;
      }

      .cls-38 {
        fill: #6ac6e0;
      }

      .cls-39 {
        clip-path: url(#clip-path-14);
      }

      .cls-40 {
        clip-path: url(#clip-path-15);
      }

      .cls-41 {
        fill: #faf5f5;
      }

      .cls-42 {
        clip-path: url(#clip-path-16);
      }

      .cls-43 {
        clip-path: url(#clip-path-17);
      }

      .cls-44 {
        fill: #b4caed;
      }

      .cls-45 {
        fill: #dae5f8;
      }

      .cls-46 {
        fill: #517fa2;
      }

      .cls-47 {
        fill: #295e87;
      }

      .cls-48 {
        opacity: 0.3;
      }
    </style>
    <clipPath id="clip-path">
      <polygon class="cls-4" points="293.23 246.83 734.22 341.75 433.87 66.26 293.23 147.46 293.23 246.83"/>
    </clipPath>
    <clipPath id="clip-path-2">
      <polygon class="cls-1" points="293.23 179.36 402.9 116.05 703.24 359.81 293.23 247 293.23 179.36"/>
    </clipPath>
    <clipPath id="clip-path-3">
      <polygon class="cls-1" points="551.17 327.6 441.5 264.29 441.5 331.93 551.17 395.25 551.17 327.6"/>
    </clipPath>
    <clipPath id="clip-path-4">
      <polygon class="cls-1" points="551.14 327.49 458.94 274.61 458.94 342.25 551.11 395.21 551.14 327.49"/>
    </clipPath>
    <clipPath id="clip-path-5">
      <polygon class="cls-1" points="694.3 411.14 584.63 347.83 584.63 415.47 694.31 478.79 694.3 411.14"/>
    </clipPath>
    <clipPath id="clip-path-6">
      <polygon class="cls-1" points="694.28 411.03 602.08 358.15 602.08 425.79 694.25 478.75 694.28 411.03"/>
    </clipPath>
    <clipPath id="clip-path-7">
      <polygon class="cls-1" points="410.18 244.93 301.22 180.41 300.47 248.05 409.44 312.57 410.18 244.93"/>
    </clipPath>
    <clipPath id="clip-path-8">
      <polygon class="cls-1" points="410.15 244.82 318.55 190.93 317.8 258.56 409.38 312.54 410.15 244.82"/>
    </clipPath>
    <clipPath id="clip-path-9">
      <path class="cls-1" d="M154.76,567.64V524.36h-97v44.28c-.22,7.33,4.5,14.71,14.19,20.3,19,10.94,49.68,10.94,68.63,0C150.75,583.09,155.46,575.3,154.76,567.64Z"/>
    </clipPath>
    <clipPath id="clip-path-10">
      <path class="cls-2" d="M127.55,526.44v-19H85v19.42c-.1,3.21,2,6.45,6.22,8.9,8.31,4.8,21.78,4.8,30.09,0C125.8,533.22,127.86,529.8,127.55,526.44Z"/>
    </clipPath>
    <clipPath id="clip-path-11">
      <path class="cls-2" d="M72.36,556V537H29.85V556.4c-.1,3.22,2,6.45,6.22,8.9,8.31,4.8,21.78,4.8,30.09,0C70.6,562.74,72.67,559.32,72.36,556Z"/>
    </clipPath>
    <clipPath id="clip-path-12">
      <path class="cls-1" d="M283.17,420.58V149.31H177.91V421.67c-.23,8,4.89,16,15.41,22,20.57,11.88,53.93,11.88,74.5,0C278.81,437.35,283.93,428.9,283.17,420.58Z"/>
    </clipPath>
    <clipPath id="clip-path-13">
      <path class="cls-1" d="M394.41,353.84V82.56H289.15V354.92c-.23,8,4.89,16,15.41,22,20.57,11.88,53.93,11.88,74.5,0C390.05,370.61,395.17,362.15,394.41,353.84Z"/>
    </clipPath>
    <clipPath id="clip-path-14">
      <polygon class="cls-3" points="634.99 498.61 204.22 747.32 64.09 666.41 494.86 417.7 634.99 498.61"/>
    </clipPath>
    <clipPath id="clip-path-15">
      <path class="cls-2" d="M745.3,255.05v-9.81h-22v10c-.05,1.66,1,3.34,3.21,4.6a17.18,17.18,0,0,0,15.55,0C744.39,258.55,745.46,256.78,745.3,255.05Z"/>
    </clipPath>
    <clipPath id="clip-path-16">
      <path class="cls-2" d="M437.1,84.27V74.46h-22v10c-.05,1.66,1,3.33,3.21,4.6a17.18,17.18,0,0,0,15.55,0C436.19,87.77,437.25,86,437.1,84.27Z"/>
    </clipPath>
    <clipPath id="clip-path-17">
      <path class="cls-2" d="M582.18,163.68v-9.81h-22v10c-.05,1.66,1,3.33,3.21,4.6a17.18,17.18,0,0,0,15.55,0C581.27,167.18,582.34,165.41,582.18,163.68Z"/>
    </clipPath>
  </defs>
  <path class="cls-5" d="M628,878.92,768,779a12.69,12.69,0,0,0-1.08-21L505,600.15"/>
  <g>
    <g>
      <polygon class="cls-4" points="734.22 504.15 874.86 422.95 874.86 323.58 734.22 404.78 734.22 504.15"/>
      <g>
        <g>
          <polygon class="cls-4" points="293.23 246.83 734.22 341.75 433.87 66.26 293.23 147.46 293.23 246.83"/>
          <g class="cls-6">
            <g>
              <polygon class="cls-7" points="289.24 149.8 438.53 63.61 438.53 62.1 289.24 148.29 289.24 149.8"/>
              <polygon class="cls-7" points="289.31 158.17 438.6 71.98 438.6 70.47 289.31 156.66 289.31 158.17"/>
              <polygon class="cls-7" points="289.38 166.54 438.67 80.35 438.67 78.83 289.38 165.02 289.38 166.54"/>
              <polygon class="cls-7" points="289.45 174.91 438.73 88.72 438.73 87.2 289.45 173.39 289.45 174.91"/>
              <polygon class="cls-7" points="289.51 183.27 438.8 97.08 438.8 95.57 289.51 181.76 289.51 183.27"/>
              <polygon class="cls-7" points="289.58 191.64 438.87 105.45 438.87 103.94 289.58 190.13 289.58 191.64"/>
              <polygon class="cls-7" points="289.65 200.01 438.94 113.82 438.94 112.31 289.65 198.5 289.65 200.01"/>
              <polygon class="cls-7" points="289.72 208.38 439.01 122.19 439.01 120.68 289.72 206.86 289.72 208.38"/>
              <polygon class="cls-7" points="289.79 216.75 439.07 130.56 439.07 129.04 289.79 215.23 289.79 216.75"/>
              <polygon class="cls-7" points="289.86 225.12 439.14 138.93 439.14 137.41 289.86 223.6 289.86 225.12"/>
              <polygon class="cls-7" points="289.93 233.48 439.21 147.29 439.21 145.78 289.93 231.97 289.93 233.48"/>
              <polygon class="cls-7" points="289.99 241.85 439.28 155.66 439.28 154.15 289.99 240.34 289.99 241.85"/>
              <polygon class="cls-7" points="290.06 250.22 739.69 340.15 739.69 338.64 290.06 248.71 290.06 250.22"/>
            </g>
          </g>
        </g>
        <polygon class="cls-8" points="293.26 179.25 402.9 116.05 703.24 359.81 293.29 246.97 293.26 179.25"/>
        <g class="cls-9">
          <g>
            <g>
              <polygon class="cls-10" points="703.35 369.71 704.23 369.21 403.88 107.53 403.01 108.03 703.35 369.71"/>
              <g>
                <path class="cls-11" d="M367.93,125.38l359.58,251s-4.81,4-6.56,4.29S348,130.3,348,130.3Z"/>
                <polygon class="cls-11" points="698.16 366.9 347.16 136.93 344.54 139.2 696.52 370.69 698.16 366.9"/>
                <polygon class="cls-11" points="660.46 392.08 314.87 149.33 309.46 153.4 654.88 402.3 660.46 392.08"/>
                <polygon class="cls-11" points="644.72 407.41 290.12 163.81 284.21 169.49 630.46 416.78 644.72 407.41"/>
              </g>
              <polygon class="cls-10" points="687.55 379.45 688.43 378.94 388.08 117.26 387.21 117.77 687.55 379.45"/>
              <polygon class="cls-10" points="671.75 389.18 672.63 388.68 372.28 127 371.41 127.5 671.75 389.18"/>
              <polygon class="cls-10" points="655.95 398.92 656.83 398.41 356.49 136.73 355.61 137.24 655.95 398.92"/>
              <polygon class="cls-10" points="640.15 408.65 641.03 408.15 340.69 146.47 339.81 146.97 640.15 408.65"/>
              <polygon class="cls-10" points="624.35 418.39 625.23 417.88 324.88 156.2 324.01 156.71 624.35 418.39"/>
              <polygon class="cls-10" points="308.21 252 309.09 251.5 309.08 165.94 308.21 166.44 308.21 252"/>
            </g>
            <g>
              <polygon class="cls-10" points="276.35 209.55 407.49 133.84 407.49 132.58 276.35 208.29 276.35 209.55"/>
              <polygon class="cls-10" points="277.66 236.05 408.8 160.34 408.8 159.08 277.66 234.79 277.66 236.05"/>
            </g>
          </g>
        </g>
        <g>
          <path class="cls-12" d="M425.09,88.47c-2,3-4.41,4-4.41,5.5,0,.78,1,.44,1.37.21,3.28-1.89,3.06-5,4.33-5.77.53-.31.74.13.74.68a9,9,0,0,1-1.26,4.52,19.07,19.07,0,0,1-4.2,3.41c-4.15,2.4-5.86.67-5.86-1.74a7,7,0,0,1,1.65-4.37c2.07-2.78,4.51-3.75,4.51-5.38,0-.74-.59-.69-1.14-.37-1.85,1.07-2.55,3.82-3.74,4.51-.66.38-1.05-.1-1.05-.8a6.93,6.93,0,0,1,2-4.38c.37-.21.62-.11.87-.25a24.73,24.73,0,0,1,2.69-2.15c3.46-2,5.24-.37,5.24,1.76A8.87,8.87,0,0,1,425.09,88.47Z"/>
          <path class="cls-12" d="M402,99.37c0-3.27-.2-3.1-.73-3.06-.36,0-.56-.19-.56-.64,0-1.44,2.37-2.83,3.21-3.32,3.55-2,3.48-.85,3.48-.46a2.12,2.12,0,0,1-.66,1.33c-.23.28-.54.6-.54,2.84,0,.63,0,.86,1.14.18l.91-.52c.86-.5,1.32-.62,1.32-1.77,0-1.83-.11-2-.55-2s-.72-.1-.72-.74c0-1.23,2.07-2.53,2.82-3,1-.58,4-2.13,4-.54a1.85,1.85,0,0,1-.59,1.09c-.66.8-.73.39-.73,5.86,0,4.3.23,4.1.88,4.08a.48.48,0,0,1,.57.54c0,1.39-2.48,2.91-3.3,3.38s-3.46,1.91-3.46.47,1.11-.84,1.11-3.66c0-1.85.23-2.07-2.26-.63-.89.52-1.11.6-1.11,1.71,0,4.17,1.32,1.67,1.25,3.29,0,1.38-2.28,2.72-3.07,3.17-3.5,2-3.54,1-3.54.52a1.78,1.78,0,0,1,.61-1.21,2,2,0,0,0,.55-1.55Z"/>
          <path class="cls-12" d="M393.3,113.39c-3.63,2.1-7,1.13-7-3.29,0-2.65,1.89-8.74,6.81-11.58C397,96.28,400,97.62,400,102A14.16,14.16,0,0,1,393.3,113.39Zm-2.44-3.86c0,1.11.46,1.94,1.55,1.31,1.92-1.11,3-6.64,3-8.39,0-1-.5-1.91-1.49-1.34C391.82,102.31,390.86,107.66,390.86,109.53Z"/>
          <path class="cls-12" d="M383.92,115.27c0,1.68,1.3.23,1.3,1.37,0,1.33-2.63,2.87-3.38,3.31s-3.37,1.88-3.37.54c0-1.19,1.3-.87,1.36-3.47v-1.2c0-.22-.08-.29-.29-.16-.48.27-1,.69-1.55,1-2.48,1.43-4.72,1.07-4.72-2s2.33-5.91,4.76-7.31c.39-.23,2.31-1,4.9-2.52.44-.26.87-.55,1.31-.8s1.34-.61,1.34.21c0,1.3-1.66,1.43-1.66,3Zm-6.53-2.89c0,1.25.46,2,1.63,1.33,1-.55.81-.93.81-1.36v-3.09c0-.41,0-.67-.68-.27A3.89,3.89,0,0,0,377.39,112.38Z"/>
        </g>
        <g>
          <polygon class="cls-12" points="304.55 166.39 320.63 157.11 320.63 135.22 304.55 144.5 304.55 166.39"/>
          <path class="cls-13" d="M315.85,147.93c-1.87,2.81-4.18,3.79-4.18,5.19,0,.74.93.41,1.3.2,3.1-1.79,2.89-4.76,4.09-5.45.5-.29.7.12.7.64a8.53,8.53,0,0,1-1.19,4.27,17.83,17.83,0,0,1-4,3.22c-3.92,2.27-5.54.63-5.54-1.64a6.72,6.72,0,0,1,1.57-4.13c1.95-2.62,4.26-3.54,4.26-5.08,0-.7-.56-.65-1.08-.35-1.75,1-2.41,3.61-3.53,4.26-.63.36-1-.09-1-.75a6.57,6.57,0,0,1,1.85-4.14c.36-.2.59-.11.83-.24a22.26,22.26,0,0,1,2.54-2c3.26-1.89,4.95-.35,4.95,1.67A8.43,8.43,0,0,1,315.85,147.93Z"/>
          <polygon class="cls-14" points="304.56 162.46 320.63 153.18 320.63 157.11 304.56 166.38 304.56 162.46"/>
        </g>
      </g>
      <polygon class="cls-15" points="734.22 504.15 293.23 246.83 293.23 147.46 734.22 404.78 734.22 504.15"/>
      <polygon class="cls-16" points="874.86 323.58 433.87 66.26 293.23 147.46 734.22 404.78 874.86 323.58"/>
      <polygon class="cls-17" points="859.72 323.58 433.87 75 308.37 147.46 734.22 396.04 859.72 323.58"/>
      <polygon class="cls-15" points="433.87 85.1 317.12 152.51 308.37 147.46 433.87 75 859.72 323.58 850.98 328.63 433.87 85.1"/>
      <g>
        <polygon class="cls-18" points="551.14 327.49 458.94 274.61 458.94 342.25 551.11 395.21 551.14 327.49"/>
        <g class="cls-19">
          <g>
            <polygon class="cls-10" points="441.39 341.83 440.51 341.33 140.17 79.65 141.05 80.15 441.39 341.83"/>
            <polygon class="cls-10" points="457.19 351.57 456.31 351.06 155.97 89.38 156.85 89.89 457.19 351.57"/>
            <polygon class="cls-10" points="472.99 361.3 472.11 360.8 472.12 275.24 472.99 275.74 472.99 361.3"/>
            <polygon class="cls-10" points="488.79 371.04 487.91 370.53 487.92 284.97 488.79 285.48 488.79 371.04"/>
            <polygon class="cls-10" points="504.59 380.77 503.71 380.26 503.71 294.71 504.59 295.21 504.59 380.77"/>
            <polygon class="cls-10" points="520.39 390.5 519.51 390 519.51 304.44 520.39 304.94 520.39 390.5"/>
            <polygon class="cls-10" points="536.19 400.24 535.31 399.74 535.31 314.18 536.19 314.68 536.19 400.24"/>
          </g>
        </g>
        <g class="cls-20">
          <g>
            <polygon class="cls-10" points="136.57 105.96 136.57 104.69 568.05 356.53 568.05 357.79 136.57 105.96"/>
            <polygon class="cls-10" points="135.25 132.46 135.25 131.2 566.74 383.03 566.74 384.29 135.25 132.46"/>
          </g>
        </g>
      </g>
      <g>
        <polygon class="cls-18" points="694.28 411.03 602.08 358.15 602.08 425.79 694.25 478.75 694.28 411.03"/>
        <g class="cls-21">
          <g>
            <polygon class="cls-10" points="584.52 425.37 583.65 424.87 283.31 163.19 284.18 163.69 584.52 425.37"/>
            <polygon class="cls-10" points="600.33 435.11 599.45 434.6 299.11 172.92 299.98 173.43 600.33 435.11"/>
            <polygon class="cls-10" points="616.13 444.84 615.25 444.34 615.25 358.78 616.13 359.28 616.13 444.84"/>
            <polygon class="cls-10" points="631.92 454.58 631.05 454.07 631.05 368.51 631.92 369.02 631.92 454.58"/>
            <polygon class="cls-10" points="647.72 464.31 646.85 463.81 646.85 378.25 647.73 378.75 647.72 464.31"/>
            <polygon class="cls-10" points="663.52 474.05 662.65 473.54 662.65 387.98 663.52 388.49 663.52 474.05"/>
            <polygon class="cls-10" points="679.32 483.78 678.45 483.28 678.45 397.72 679.33 398.22 679.32 483.78"/>
          </g>
        </g>
        <g class="cls-22">
          <g>
            <polygon class="cls-10" points="279.7 189.5 279.7 188.24 711.19 440.07 711.19 441.33 279.7 189.5"/>
            <polygon class="cls-10" points="278.39 216 278.39 214.74 709.88 466.57 709.88 467.83 278.39 216"/>
          </g>
        </g>
      </g>
      <g>
        <polygon class="cls-18" points="410.15 244.82 318.55 190.93 317.8 258.56 409.38 312.54 410.15 244.82"/>
        <g class="cls-23">
          <g>
            <polygon class="cls-10" points="300.25 257.95 299.38 257.44 1.95 -7.54 2.81 -7.03 300.25 257.95"/>
            <polygon class="cls-10" points="315.94 267.86 315.07 267.34 17.64 2.37 18.5 2.88 315.94 267.86"/>
            <polygon class="cls-10" points="331.63 277.77 330.76 277.25 331.71 191.7 332.58 192.21 331.63 277.77"/>
            <polygon class="cls-10" points="347.33 287.68 346.46 287.16 347.4 201.61 348.27 202.12 347.33 287.68"/>
            <polygon class="cls-10" points="363.02 297.58 362.15 297.07 363.09 211.51 363.96 212.03 363.02 297.58"/>
            <polygon class="cls-10" points="378.71 307.49 377.84 306.98 378.78 221.42 379.65 221.94 378.71 307.49"/>
            <polygon class="cls-10" points="394.4 317.4 393.53 316.89 394.48 231.33 395.35 231.85 394.4 317.4"/>
          </g>
        </g>
        <g class="cls-24">
          <g>
            <polygon class="cls-10" points="-1.95 18.73 -1.94 17.47 426.75 274.05 426.73 275.31 -1.95 18.73"/>
            <polygon class="cls-10" points="-3.56 45.22 -3.54 43.95 425.14 300.53 425.13 301.79 -3.56 45.22"/>
          </g>
        </g>
      </g>
    </g>
    <g>
      <polygon class="cls-3" points="735.33 373.39 794.09 339.47 794.09 259.41 735.33 293.33 735.33 373.39"/>
      <polygon class="cls-25" points="669.15 335.05 735.33 373.39 735.33 293.33 669.15 254.99 669.15 335.05"/>
      <polygon class="cls-25" points="669.15 335.05 727.91 301.12 727.91 221.06 669.15 254.99 669.15 335.05"/>
      <polygon class="cls-17" points="770.31 293.76 783 286.44 783 276.92 770.31 284.24 770.31 293.76"/>
      <polygon class="cls-17" points="745.05 308.35 757.74 301.02 757.74 291.5 745.05 298.83 745.05 308.35"/>
      <polygon class="cls-26" points="794.09 259.41 727.91 221.06 669.15 254.99 735.33 293.33 794.09 259.41"/>
      <polygon class="cls-3" points="801.34 252.04 727.92 209.5 661.91 247.61 735.32 290.15 801.34 252.04"/>
      <polygon class="cls-18" points="794.09 252.03 727.91 213.69 669.15 247.62 735.33 285.96 794.09 252.03"/>
      <polygon class="cls-27" points="801.34 252.04 794.09 259.41 735.33 293.33 735.32 290.15 801.34 252.04"/>
      <polygon class="cls-27" points="735.32 290.15 661.91 247.61 669.15 254.99 735.33 293.33 735.32 290.15"/>
      <polygon class="cls-27" points="727.91 218.76 673.54 250.16 669.15 247.62 727.91 213.69 794.09 252.03 789.7 254.57 727.91 218.76"/>
    </g>
    <g>
      <polygon class="cls-3" points="574.29 279.66 633.06 245.73 633.05 165.67 574.29 199.6 574.29 279.66"/>
      <polygon class="cls-25" points="508.11 241.31 574.29 279.66 574.29 199.6 508.11 161.25 508.11 241.31"/>
      <polygon class="cls-25" points="508.11 241.31 566.88 207.38 566.88 127.32 508.11 161.25 508.11 241.31"/>
      <polygon class="cls-17" points="609.27 200.03 621.96 192.7 621.96 183.18 609.27 190.5 609.27 200.03"/>
      <polygon class="cls-17" points="584.01 214.61 596.7 207.29 596.7 197.77 584.01 205.09 584.01 214.61"/>
      <polygon class="cls-26" points="633.05 165.67 566.88 127.32 508.11 161.25 574.29 199.6 633.05 165.67"/>
      <polygon class="cls-3" points="640.3 158.3 566.88 115.76 500.87 153.87 574.29 196.41 640.3 158.3"/>
      <polygon class="cls-18" points="633.05 158.3 566.88 119.95 508.11 153.88 574.29 192.22 633.05 158.3"/>
      <polygon class="cls-27" points="640.3 158.3 633.05 165.67 574.29 199.6 574.29 196.41 640.3 158.3"/>
      <polygon class="cls-27" points="574.29 196.41 500.87 153.87 508.11 161.25 574.29 199.6 574.29 196.41"/>
      <polygon class="cls-27" points="566.88 125.03 512.5 156.42 508.11 153.88 566.88 119.95 633.05 158.3 628.67 160.83 566.88 125.03"/>
    </g>
    <g>
      <polygon class="cls-3" points="430.08 198.74 488.84 164.81 488.84 84.75 430.08 118.68 430.08 198.74"/>
      <polygon class="cls-25" points="363.9 160.39 430.08 198.74 430.08 118.68 363.9 80.33 363.9 160.39"/>
      <polygon class="cls-25" points="363.9 160.39 422.67 126.46 422.66 46.4 363.9 80.33 363.9 160.39"/>
      <polygon class="cls-17" points="465.06 119.11 477.75 111.78 477.75 102.26 465.06 109.59 465.06 119.11"/>
      <polygon class="cls-17" points="439.8 133.69 452.49 126.37 452.48 116.85 439.8 124.17 439.8 133.69"/>
      <polygon class="cls-26" points="488.84 84.75 422.66 46.4 363.9 80.33 430.08 118.68 488.84 84.75"/>
      <polygon class="cls-3" points="496.08 77.38 422.67 34.84 356.66 72.95 430.07 115.49 496.08 77.38"/>
      <polygon class="cls-18" points="488.84 77.38 422.66 39.03 363.9 72.96 430.08 111.3 488.84 77.38"/>
      <polygon class="cls-27" points="496.08 77.38 488.84 84.75 430.08 118.68 430.07 115.49 496.08 77.38"/>
      <polygon class="cls-27" points="430.07 115.49 356.66 72.95 363.9 80.33 430.08 118.68 430.07 115.49"/>
      <polygon class="cls-27" points="422.66 44.11 368.29 75.5 363.9 72.96 422.66 39.03 488.84 77.38 484.45 79.91 422.66 44.11"/>
    </g>
    <g>
      <g>
        <g>
          <ellipse class="cls-28" cx="85.48" cy="567.45" rx="8.08" ry="4.67"/>
          <ellipse class="cls-28" cx="131.75" cy="565.79" rx="8.08" ry="4.67"/>
          <g>
            <rect class="cls-17" x="57.8" y="524.36" width="96.96" height="45.16"/>
            <ellipse class="cls-17" cx="106.31" cy="569.13" rx="48.53" ry="28.02"/>
            <g class="cls-29">
              <rect class="cls-30" x="67.92" y="534.12" width="13.06" height="81.5"/>
            </g>
            <ellipse class="cls-18" cx="106.31" cy="525.48" rx="48.53" ry="28.02"/>
          </g>
        </g>
        <g>
          <ellipse class="cls-28" cx="97.18" cy="526.36" rx="3.55" ry="2.05"/>
          <path class="cls-28" d="M120,524.18c1.38.8,1.38,2.1,0,2.9a5.53,5.53,0,0,1-5,0c-1.39-.8-1.39-2.1,0-2.9A5.53,5.53,0,0,1,120,524.18Z"/>
          <g>
            <rect class="cls-31" x="85.04" y="507.46" width="42.52" height="19.8"/>
            <ellipse class="cls-2" cx="106.31" cy="527.09" rx="21.28" ry="12.29"/>
            <g>
              <path class="cls-2" d="M127.55,526.44v-19H85v19.42c-.1,3.21,2,6.45,6.22,8.9,8.31,4.8,21.78,4.8,30.09,0C125.8,533.22,127.86,529.8,127.55,526.44Z"/>
              <g class="cls-32">
                <rect class="cls-2" x="89.47" y="511.74" width="5.73" height="35.74"/>
                <rect class="cls-2" x="115" y="486.81" width="18.68" height="62.66"/>
              </g>
            </g>
            <ellipse class="cls-27" cx="106.31" cy="507.95" rx="21.28" ry="12.29"/>
          </g>
        </g>
        <ellipse class="cls-17" cx="106.31" cy="507.95" rx="14.73" ry="8.51"/>
      </g>
      <g>
        <g>
          <ellipse class="cls-28" cx="30.29" cy="596.98" rx="8.08" ry="4.67"/>
          <ellipse class="cls-28" cx="76.55" cy="595.31" rx="8.08" ry="4.67"/>
          <g>
            <rect class="cls-17" x="2.61" y="553.88" width="96.96" height="45.16"/>
            <ellipse class="cls-17" cx="51.12" cy="598.65" rx="48.53" ry="28.02"/>
            <ellipse class="cls-18" cx="51.12" cy="555" rx="48.53" ry="28.02"/>
          </g>
        </g>
        <g>
          <path class="cls-28" d="M44.49,554.43c1.39.8,1.39,2.1,0,2.9a5.53,5.53,0,0,1-5,0c-1.39-.8-1.39-2.1,0-2.9A5.53,5.53,0,0,1,44.49,554.43Z"/>
          <path class="cls-28" d="M64.78,553.7c1.38.8,1.38,2.1,0,2.9a5.55,5.55,0,0,1-5,0c-1.38-.8-1.38-2.1,0-2.9A5.55,5.55,0,0,1,64.78,553.7Z"/>
          <g>
            <rect class="cls-31" x="29.85" y="536.98" width="42.52" height="19.8"/>
            <ellipse class="cls-2" cx="51.12" cy="556.61" rx="21.28" ry="12.29"/>
            <g>
              <path class="cls-2" d="M72.36,556V537H29.85V556.4c-.1,3.22,2,6.45,6.22,8.9,8.31,4.8,21.78,4.8,30.09,0C70.6,562.74,72.67,559.32,72.36,556Z"/>
              <g class="cls-33">
                <rect class="cls-2" x="34.28" y="541.26" width="5.73" height="35.74"/>
                <rect class="cls-2" x="59.81" y="516.33" width="18.68" height="62.66"/>
              </g>
            </g>
            <ellipse class="cls-27" cx="51.12" cy="537.48" rx="21.28" ry="12.29"/>
          </g>
        </g>
        <ellipse class="cls-17" cx="51.12" cy="537.48" rx="14.73" ry="8.51"/>
      </g>
      <g>
        <g>
          <polygon class="cls-3" points="226.99 543.8 423.63 428.66 423.63 364.29 226.99 479.43 226.99 543.8"/>
          <polygon class="cls-25" points="145.93 496.83 226.99 543.8 226.99 479.43 145.93 432.46 145.93 496.83"/>
          <polygon class="cls-25" points="145.93 496.83 217.91 488.97 342.57 317.32 145.93 432.46 145.93 496.83"/>
          <polygon class="cls-26" points="423.63 364.29 342.57 317.32 145.93 432.46 226.99 479.43 423.63 364.29"/>
          <polygon class="cls-27" points="432.5 355.27 342.58 303.16 137.06 423.43 226.99 475.53 432.5 355.27"/>
          <polygon class="cls-18" points="423.63 355.26 342.57 308.29 145.93 423.43 226.99 470.4 423.63 355.26"/>
          <polygon class="cls-27" points="432.5 355.27 423.63 364.29 226.99 479.43 226.99 475.53 432.5 355.27"/>
          <polygon class="cls-3" points="226.99 475.53 137.06 423.43 145.93 432.46 226.99 479.43 226.99 475.53"/>
          <polygon class="cls-3" points="342.57 314.51 151.31 426.55 145.93 423.43 342.57 308.29 423.63 355.26 418.26 358.36 342.57 314.51"/>
        </g>
        <g>
          <g>
            <rect class="cls-17" x="177.91" y="149.31" width="105.25" height="273.31"/>
            <ellipse class="cls-17" cx="230.57" cy="422.2" rx="52.68" ry="30.41"/>
            <g class="cls-34">
              <rect class="cls-17" x="190.63" y="149.42" width="20.44" height="312.76"/>
            </g>
            <ellipse class="cls-2" cx="230.57" cy="150.53" rx="52.68" ry="30.41"/>
          </g>
          <g>
            <path class="cls-35" d="M230.57,454c-13.74,0-27.48-3-37.94-9.06s-16.12-14.06-16.12-22.7h2.77c0,7.6,5.23,14.82,14.73,20.3,20.16,11.64,53,11.64,73.11,0,9.32-5.38,14.56-12.45,14.73-19.91l2.78.06c-.2,8.47-5.93,16.37-16.12,22.25C258.05,450.94,244.31,454,230.57,454Z"/>
            <path class="cls-35" d="M230.57,420c-13.74,0-27.48-3-37.94-9.05s-16.11-14.05-16.12-22.68h2.77c0,7.59,5.25,14.79,14.73,20.27,20.16,11.64,53,11.64,73.11,0,9.41-5.43,14.64-12.57,14.73-20.1l2.77,0C284.52,397,278.8,405,268.51,411,258.05,417,244.31,420,230.57,420Z"/>
            <path class="cls-35" d="M230.57,386.05c-13.74,0-27.48-3-37.94-9.06s-16.09-14-16.12-22.64h2.77c0,7.58,5.26,14.77,14.73,20.24,20.16,11.64,53,11.64,73.11,0,9.5-5.48,14.73-12.69,14.72-20.29h2.78c0,8.64-5.72,16.7-16.11,22.7S244.31,386.05,230.57,386.05Z"/>
            <path class="cls-35" d="M230.57,352.09c-13.74,0-27.48-3-37.94-9.06s-16.08-14-16.12-22.61h2.77c0,7.57,5.27,14.75,14.73,20.22,20.16,11.63,53,11.63,73.11,0,9.59-5.54,14.82-12.81,14.72-20.49l2.77,0c.11,8.72-5.61,16.86-16.1,22.92S244.31,352.09,230.57,352.09Z"/>
            <path class="cls-35" d="M230.57,318.13c-13.74,0-27.48-3-37.94-9.06s-16.06-14-16.12-22.58h2.77c.05,7.56,5.29,14.73,14.73,20.19,20.16,11.63,53,11.63,73.11,0,9.68-5.59,14.9-12.93,14.72-20.67l2.77-.07c.21,8.8-5.5,17-16.1,23.14S244.31,318.13,230.57,318.13Z"/>
            <path class="cls-35" d="M230.57,284.17c-13.74,0-27.48-3-37.94-9.06s-16-14-16.12-22.54l2.77,0c.07,7.56,5.3,14.72,14.73,20.17,20.16,11.64,53,11.64,73.11,0,9.77-5.64,15-13,14.71-20.86l2.77-.1c.32,8.89-5.39,17.18-16.09,23.36C258.05,281.15,244.31,284.17,230.57,284.17Z"/>
            <path class="cls-35" d="M230.57,250.21c-13.74,0-27.48-3-37.94-9.06-10.31-6-16-13.94-16.12-22.51l2.77,0c.08,7.55,5.31,14.7,14.73,20.14,20.16,11.64,53,11.64,73.11,0,9.86-5.69,15.08-13.17,14.71-21.05l2.77-.13c.42,9-5.29,17.35-16.09,23.58C258.05,247.19,244.31,250.21,230.57,250.21Z"/>
            <path class="cls-35" d="M230.57,216.25c-13.74,0-27.48-3-37.94-9.06-10.29-5.94-16-13.92-16.12-22.47l2.77,0c.09,7.54,5.32,14.68,14.73,20.11,20.16,11.64,53,11.64,73.11,0,9.95-5.74,15.17-13.28,14.7-21.24l2.77-.16c.52,8.93-5.34,17.6-16.08,23.8C258.05,213.23,244.31,216.25,230.57,216.25Z"/>
            <path class="cls-35" d="M230.57,182.29c-13.74,0-27.48-3-37.94-9.06-10.28-5.93-16-13.9-16.12-22.44l2.77,0c.11,7.53,5.34,14.66,14.73,20.08,20.16,11.64,53,11.64,73.11,0,9.89-5.71,15.25-13.52,14.7-21.43l2.77-.19c.62,9-5.24,17.77-16.08,24C258.05,179.27,244.31,182.29,230.57,182.29Z"/>
          </g>
        </g>
        <g>
          <g>
            <rect class="cls-17" x="289.15" y="82.56" width="105.25" height="273.31"/>
            <ellipse class="cls-17" cx="341.81" cy="355.45" rx="52.68" ry="30.41"/>
            <g class="cls-36">
              <rect class="cls-17" x="303.36" y="94.16" width="20.44" height="312.76"/>
            </g>
            <ellipse class="cls-2" cx="341.81" cy="83.78" rx="52.68" ry="30.41"/>
          </g>
          <g>
            <path class="cls-35" d="M341.81,387.22c-13.74,0-27.48-3-37.94-9.06s-16.12-14.07-16.12-22.71h2.77c0,7.61,5.23,14.82,14.73,20.31,20.16,11.64,53,11.64,73.11,0,9.32-5.38,14.56-12.46,14.73-19.92l2.78.07c-.2,8.46-5.93,16.37-16.12,22.25C369.29,384.2,355.55,387.22,341.81,387.22Z"/>
            <path class="cls-35" d="M341.81,353.26c-13.74,0-27.48-3-37.94-9.06s-16.11-14.05-16.12-22.67h2.77c0,7.6,5.25,14.8,14.73,20.28,20.16,11.63,53,11.64,73.11,0,9.41-5.43,14.64-12.57,14.73-20.11l2.77,0c-.1,8.55-5.82,16.53-16.11,22.47C369.29,350.24,355.55,353.26,341.81,353.26Z"/>
            <path class="cls-35" d="M341.81,319.3c-13.74,0-27.48-3-37.94-9.06s-16.09-14-16.12-22.64h2.77c0,7.59,5.26,14.78,14.73,20.25,20.16,11.64,53,11.64,73.11,0,9.5-5.48,14.73-12.69,14.72-20.29h2.78c0,8.63-5.72,16.69-16.11,22.69S355.55,319.3,341.81,319.3Z"/>
            <path class="cls-35" d="M341.81,285.34c-13.74,0-27.48-3-37.94-9.06s-16.08-14-16.12-22.6l2.77,0c0,7.58,5.27,14.76,14.73,20.22,20.16,11.64,53,11.64,73.11,0,9.59-5.53,14.82-12.81,14.72-20.48l2.77,0c.11,8.73-5.61,16.87-16.1,22.92S355.55,285.34,341.81,285.34Z"/>
            <path class="cls-35" d="M341.81,251.38c-13.74,0-27.48-3-37.94-9s-16.06-14-16.12-22.58l2.77,0c.05,7.57,5.29,14.74,14.73,20.19,20.16,11.64,53,11.64,73.11,0,9.68-5.58,14.9-12.92,14.72-20.67l2.77-.07c.21,8.81-5.5,17-16.1,23.15S355.55,251.38,341.81,251.38Z"/>
            <path class="cls-35" d="M341.81,217.43c-13.74,0-27.48-3-37.94-9.06s-16.05-14-16.12-22.55l2.77,0c.07,7.55,5.3,14.72,14.73,20.16,20.16,11.64,53,11.64,73.11,0,9.77-5.63,15-13,14.71-20.86l2.77-.1c.32,8.89-5.39,17.19-16.09,23.37C369.29,214.41,355.55,217.43,341.81,217.43Z"/>
            <path class="cls-35" d="M341.81,183.47c-13.74,0-27.48-3-37.94-9.06s-16-13.95-16.12-22.51l2.77,0c.08,7.54,5.31,14.69,14.73,20.14,20.16,11.63,53,11.63,73.11,0,9.86-5.69,15.08-13.17,14.71-21.06l2.77-.13c.42,9-5.29,17.35-16.09,23.59C369.29,180.45,355.55,183.47,341.81,183.47Z"/>
            <path class="cls-35" d="M341.81,149.51c-13.74,0-27.48-3-37.94-9.06-10.29-5.94-16-13.92-16.12-22.48l2.77,0c.09,7.53,5.32,14.67,14.73,20.11,20.16,11.63,53,11.63,73.11,0,9.95-5.74,15.17-13.29,14.7-21.24l2.77-.17c.52,8.93-5.34,17.61-16.08,23.81C369.29,146.49,355.55,149.51,341.81,149.51Z"/>
            <path class="cls-35" d="M341.81,115.55c-13.74,0-27.48-3-37.94-9.06-10.28-5.93-16-13.9-16.12-22.44l2.77,0c.11,7.52,5.34,14.65,14.73,20.08,20.16,11.63,53,11.63,73.11,0,9.89-5.71,15.25-13.52,14.7-21.43l2.77-.2c.62,9-5.24,17.77-16.08,24C369.29,112.53,355.55,115.55,341.81,115.55Z"/>
          </g>
        </g>
        <path class="cls-37" d="M107.84,516.12a10.9,10.9,0,0,1-10.91-10.91V395.47a10.91,10.91,0,1,1,21.82,0V505.21A10.91,10.91,0,0,1,107.84,516.12Z"/>
        <path class="cls-37" d="M49.44,545a10.9,10.9,0,0,1-10.91-10.91V462.63a69.36,69.36,0,0,1,34.8-60.05l115.59-65a10.91,10.91,0,0,1,10.69,19L84.1,421.55a47.48,47.48,0,0,0-23.75,41.08v71.46A10.91,10.91,0,0,1,49.44,545Z"/>
      </g>
    </g>
    <g>
      <polygon class="cls-3" points="668.72 497.11 668.72 517.58 606.47 540.55 634.93 505.72 668.72 497.11"/>
      <polygon class="cls-3" points="668.72 517.58 205.52 785.02 35.55 686.88 498.75 419.45 668.72 517.58"/>
      <g>
        <polygon class="cls-27" points="668.72 497.11 205.52 764.54 35.55 666.41 498.75 398.97 668.72 497.11"/>
        <polygon class="cls-38" points="634.99 498.61 204.22 747.32 64.09 666.41 494.86 417.7 634.99 498.61"/>
      </g>
      <g>
        <polygon class="cls-3" points="634.99 498.61 204.22 747.32 64.09 666.41 494.86 417.7 634.99 498.61"/>
        <g class="cls-39">
          <polygon class="cls-2" points="634.99 520.08 204.22 768.79 64.09 687.88 494.86 439.17 634.99 520.08"/>
        </g>
      </g>
      <polygon class="cls-25" points="35.55 666.41 35.55 686.88 205.52 785.02 205.52 764.54 35.55 666.41"/>
      <polygon class="cls-3" points="494.86 417.7 494.86 439.17 615.83 509.09 634.99 498.61 494.86 417.7"/>
    </g>
    <g>
      <path class="cls-27" d="M351.37,547.72l22.56,13V433.35c0-21.43-15.1-47.59-33.67-58.31l-68.08-37.93v26l68.08,37.94c6.13,3.53,11.11,12.17,11.11,19.24Z"/>
      <polygon class="cls-27" points="373.93 560.74 352.27 573.42 342.5 432.82 329.3 405.75 271.42 372.75 250.52 349.79 272.18 337.11 340.35 389.09 359 419.78 362.13 437.77 373.93 560.74"/>
      <path class="cls-25" d="M329.72,560.4l22.55,13V446c0-21.44-15.1-47.59-33.66-58.31l-68.09-37.94v26l68.08,37.93c6.13,3.54,11.12,12.17,11.12,19.25Z"/>
    </g>
    <g>
      <path class="cls-27" d="M462.49,484.79l22.56,13V370.43c0-21.44-15.1-47.6-33.67-58.31L383.3,274.18v26l68.08,37.94c6.13,3.54,11.12,12.17,11.12,19.24Z"/>
      <polygon class="cls-27" points="485.05 497.81 463.39 510.5 453.62 369.89 440.42 342.83 382.54 309.82 361.64 286.87 383.3 274.18 451.47 326.16 470.12 356.85 473.25 374.84 485.05 497.81"/>
      <path class="cls-25" d="M440.84,497.47l22.55,13V383.11c0-21.43-15.1-47.59-33.66-58.31l-68.09-37.93v26l68.09,37.93c6.12,3.54,11.11,12.17,11.11,19.25Z"/>
    </g>
    <g>
      <g>
        <path class="cls-28" d="M730.89,254.26a.78.78,0,0,1,0,1.49,2.82,2.82,0,0,1-2.59,0,.79.79,0,0,1,0-1.49A2.82,2.82,0,0,1,730.89,254.26Z"/>
        <path class="cls-28" d="M741.38,253.88a.79.79,0,0,1,0,1.5,2.88,2.88,0,0,1-2.59,0c-.72-.42-.72-1.09,0-1.5A2.88,2.88,0,0,1,741.38,253.88Z"/>
        <g>
          <rect class="cls-31" x="723.33" y="245.24" width="21.97" height="10.23"/>
          <path class="cls-2" d="M742.09,250.89c4.3,2.48,4.3,6.5,0,9a17.18,17.18,0,0,1-15.55,0c-4.29-2.48-4.29-6.5,0-9A17.24,17.24,0,0,1,742.09,250.89Z"/>
          <g>
            <path class="cls-2" d="M745.3,255.05v-9.81h-22v10c-.05,1.66,1,3.34,3.21,4.6a17.18,17.18,0,0,0,15.55,0C744.39,258.55,745.46,256.78,745.3,255.05Z"/>
            <g class="cls-40">
              <rect class="cls-2" x="725.62" y="247.45" width="2.96" height="18.47"/>
              <rect class="cls-2" x="738.81" y="234.57" width="9.65" height="32.38"/>
            </g>
          </g>
          <path class="cls-41" d="M742.09,241c4.3,2.48,4.3,6.5,0,9a17.18,17.18,0,0,1-15.55,0c-4.29-2.48-4.29-6.5,0-9A17.24,17.24,0,0,1,742.09,241Z"/>
        </g>
      </g>
      <path class="cls-18" d="M739.7,242.39c3,1.71,3,4.5,0,6.21a11.88,11.88,0,0,1-10.77,0c-3-1.71-3-4.5,0-6.21A11.88,11.88,0,0,1,739.7,242.39Z"/>
    </g>
    <path class="cls-17" d="M734.94,250a6,6,0,0,1-6-6V207.19a3.59,3.59,0,0,0-1.79-3.09L395.17,14a3.6,3.6,0,0,0-3.59,0L348.65,39.16a3.6,3.6,0,0,0-1.76,3.08v32a6,6,0,0,1-12,0v-32a15.62,15.62,0,0,1,7.69-13.42L385.52,3.68a15.58,15.58,0,0,1,15.61-.06l332,190.09a15.57,15.57,0,0,1,7.8,13.48V244A6,6,0,0,1,734.94,250Z"/>
    <g>
      <g>
        <ellipse class="cls-28" cx="421.4" cy="84.23" rx="1.83" ry="1.06"/>
        <path class="cls-28" d="M433.18,83.1a.79.79,0,0,1,0,1.5,2.88,2.88,0,0,1-2.59,0c-.72-.41-.72-1.08,0-1.5A2.88,2.88,0,0,1,433.18,83.1Z"/>
        <g>
          <rect class="cls-31" x="415.13" y="74.46" width="21.97" height="10.23"/>
          <ellipse class="cls-2" cx="426.12" cy="84.61" rx="11" ry="6.35"/>
          <g>
            <path class="cls-2" d="M437.1,84.27V74.46h-22v10c-.05,1.66,1,3.33,3.21,4.6a17.18,17.18,0,0,0,15.55,0C436.19,87.77,437.25,86,437.1,84.27Z"/>
            <g class="cls-42">
              <rect class="cls-2" x="417.42" y="76.68" width="2.96" height="18.47"/>
              <rect class="cls-2" x="430.61" y="63.79" width="9.65" height="32.38"/>
            </g>
          </g>
          <ellipse class="cls-41" cx="426.12" cy="74.72" rx="11" ry="6.35"/>
        </g>
      </g>
      <ellipse class="cls-18" cx="426.12" cy="74.72" rx="7.61" ry="4.4"/>
    </g>
    <g>
      <g>
        <path class="cls-28" d="M567.78,162.89a.79.79,0,0,1,0,1.5,2.88,2.88,0,0,1-2.59,0c-.72-.42-.72-1.09,0-1.5A2.88,2.88,0,0,1,567.78,162.89Z"/>
        <path class="cls-28" d="M578.26,162.51a.79.79,0,0,1,0,1.5,2.88,2.88,0,0,1-2.59,0c-.72-.41-.72-1.08,0-1.5A2.88,2.88,0,0,1,578.26,162.51Z"/>
        <g>
          <rect class="cls-31" x="560.21" y="153.87" width="21.97" height="10.23"/>
          <path class="cls-2" d="M579,159.53c4.3,2.48,4.3,6.5,0,9a17.18,17.18,0,0,1-15.55,0c-4.29-2.48-4.29-6.5,0-9A17.18,17.18,0,0,1,579,159.53Z"/>
          <g>
            <path class="cls-2" d="M582.18,163.68v-9.81h-22v10c-.05,1.66,1,3.33,3.21,4.6a17.18,17.18,0,0,0,15.55,0C581.27,167.18,582.34,165.41,582.18,163.68Z"/>
            <g class="cls-43">
              <rect class="cls-2" x="562.5" y="156.08" width="2.96" height="18.47"/>
              <rect class="cls-2" x="575.69" y="143.2" width="9.65" height="32.38"/>
            </g>
          </g>
          <ellipse class="cls-41" cx="571.2" cy="154.13" rx="11" ry="6.35"/>
        </g>
      </g>
      <path class="cls-18" d="M576.58,151c3,1.72,3,4.5,0,6.21a11.86,11.86,0,0,1-10.76,0c-3-1.71-3-4.49,0-6.21A11.86,11.86,0,0,1,576.58,151Z"/>
    </g>
    <path class="cls-17" d="M425.92,78.71a6,6,0,0,1-6-6V23.65a6,6,0,0,1,12,0V72.72A6,6,0,0,1,425.92,78.71Z"/>
    <path class="cls-17" d="M570.88,157.87a6,6,0,0,1-6-6v-43.2a6,6,0,1,1,12,0v43.2A6,6,0,0,1,570.88,157.87Z"/>
  </g>
  <g>
    <g>
      <g>
        <path class="cls-27" d="M130.34,1009.83H110.47a60.74,60.74,0,0,0-33,0H57.62v5.86h0c0,5.38,3.56,10.74,10.65,14.85,14.2,8.2,37.22,8.2,51.43,0,7.1-4.11,10.64-9.47,10.64-14.85h0Z"/>
        <path class="cls-18" d="M119.7,1024.68c-14.21,8.2-37.23,8.2-51.43,0s-14.19-21.5,0-29.69,37.22-8.2,51.43,0S133.9,1016.48,119.7,1024.68Z"/>
      </g>
      <g>
        <path class="cls-17" d="M128.35,918.44H109.57a57.5,57.5,0,0,0-31.17,0H59.62v90.28h0c0,5.07,3.35,10.16,10.06,14,13.42,7.74,35.19,7.74,48.61,0,6.71-3.87,10.06-9,10.06-14h0Z"/>
        <path class="cls-10" d="M118.29,932.47c-13.42,7.75-35.19,7.75-48.61,0s-13.42-20.31,0-28.06,35.19-7.74,48.61,0S131.7,924.72,118.29,932.47Z"/>
        <path class="cls-35" d="M128.35,963.1c0,5.07-3.36,10.16-10.06,14-13.42,7.75-35.19,7.75-48.61,0-6.71-3.87-10.06-9-10.06-14h0v2.79c0,5.07,3.35,10.16,10.06,14,13.42,7.73,35.19,7.73,48.61,0,6.71-3.88,10.06-9,10.06-14V963.1Z"/>
        <path class="cls-35" d="M128.35,979.39c0,5.08-3.36,10.16-10.06,14-13.42,7.74-35.19,7.74-48.61,0-6.71-3.88-10.06-9-10.06-14h0v2.79c0,5.08,3.35,10.16,10.06,14,13.42,7.75,35.19,7.75,48.61,0,6.71-3.87,10.06-9,10.06-14v-2.79Z"/>
        <path class="cls-44" d="M117.66,920.82c-.81-2.73-3-5.34-6.68-7.44-9.39-5.41-24.6-5.41-34,0-3.64,2.1-5.87,4.71-6.68,7.44-1.29-4.3.94-8.87,6.68-12.19,9.39-5.41,24.6-5.41,34,0C116.72,912,119,916.52,117.66,920.82Z"/>
        <path class="cls-2" d="M117.66,920.82c-.82,2.71-3,5.33-6.68,7.43-9.39,5.41-24.6,5.41-34,0-3.64-2.1-5.87-4.72-6.68-7.43.81-2.73,3-5.34,6.68-7.44,9.39-5.41,24.6-5.41,34,0C114.61,915.48,116.85,918.09,117.66,920.82Z"/>
      </g>
    </g>
    <g>
      <g>
        <path class="cls-27" d="M249,941.31H229.15a60.74,60.74,0,0,0-33,0H176.3v5.86h0c0,5.38,3.55,10.74,10.65,14.85,14.2,8.2,37.22,8.2,51.43,0,7.1-4.11,10.64-9.47,10.64-14.85h0Z"/>
        <path class="cls-18" d="M238.38,956.16c-14.21,8.2-37.23,8.2-51.43,0s-14.19-21.49,0-29.69,37.22-8.2,51.43,0S252.57,948,238.38,956.16Z"/>
      </g>
      <g>
        <path class="cls-17" d="M247,849.92H228.25a57.5,57.5,0,0,0-31.17,0H178.3V940.2h0c0,5.07,3.35,10.16,10.06,14,13.42,7.74,35.19,7.74,48.61,0,6.71-3.87,10.06-9,10.06-14h0Z"/>
        <path class="cls-10" d="M237,864c-13.42,7.74-35.19,7.74-48.61,0s-13.42-20.32,0-28.07,35.19-7.74,48.61,0S250.38,856.2,237,864Z"/>
        <path class="cls-35" d="M247,894.58c0,5.07-3.36,10.16-10.06,14-13.42,7.75-35.19,7.75-48.61,0-6.71-3.87-10.06-9-10.06-14h0v2.79c0,5.07,3.35,10.16,10.06,14,13.42,7.73,35.19,7.73,48.61,0,6.71-3.88,10.06-9,10.06-14v-2.79Z"/>
        <path class="cls-35" d="M247,910.87c0,5.08-3.36,10.16-10.06,14-13.42,7.74-35.19,7.74-48.61,0-6.71-3.88-10.06-9-10.06-14h0v2.79c0,5.08,3.35,10.16,10.06,14,13.42,7.75,35.19,7.75,48.61,0,6.71-3.87,10.06-9,10.06-14v-2.79Z"/>
        <path class="cls-44" d="M236.34,852.3c-.81-2.73-3.05-5.34-6.69-7.44-9.38-5.41-24.59-5.41-34,0-3.64,2.1-5.87,4.71-6.68,7.44-1.3-4.29.94-8.87,6.68-12.19,9.39-5.41,24.6-5.41,34,0C235.4,843.43,237.63,848,236.34,852.3Z"/>
        <path class="cls-2" d="M236.34,852.3c-.82,2.71-3.05,5.33-6.69,7.43-9.38,5.41-24.59,5.41-34,0-3.64-2.1-5.87-4.72-6.68-7.43.81-2.73,3-5.34,6.68-7.44,9.39-5.41,24.6-5.41,34,0C233.29,847,235.53,849.57,236.34,852.3Z"/>
      </g>
    </g>
    <g>
      <g>
        <path class="cls-27" d="M378.37,866.64H358.5a60.58,60.58,0,0,0-33,0H305.65v5.86h0c0,5.37,3.55,10.74,10.65,14.84,14.2,8.2,37.22,8.2,51.42,0,7.1-4.1,10.65-9.47,10.65-14.84h0Z"/>
        <path class="cls-18" d="M367.72,881.48c-14.2,8.2-37.22,8.2-51.42,0s-14.2-21.49,0-29.69,37.22-8.2,51.42,0S381.92,873.28,367.72,881.48Z"/>
      </g>
      <g>
        <path class="cls-17" d="M376.38,775.24H357.59a57.5,57.5,0,0,0-31.17,0H307.64v90.28h0c0,5.07,3.36,10.16,10.07,14,13.42,7.74,35.18,7.74,48.6,0,6.71-3.87,10.07-9,10.07-14h0Z"/>
        <path class="cls-10" d="M366.31,789.28c-13.42,7.74-35.18,7.74-48.6,0s-13.42-20.32,0-28.06,35.18-7.75,48.6,0S379.73,781.52,366.31,789.28Z"/>
        <path class="cls-35" d="M376.38,819.9c0,5.08-3.36,10.16-10.07,14-13.42,7.75-35.18,7.75-48.6,0-6.71-3.87-10.07-8.95-10.07-14h0v2.79c0,5.08,3.36,10.16,10.07,14,13.42,7.74,35.18,7.74,48.6,0,6.71-3.88,10.07-9,10.07-14V819.9Z"/>
        <path class="cls-35" d="M376.38,836.19c0,5.08-3.36,10.16-10.07,14-13.42,7.75-35.18,7.75-48.6,0-6.71-3.88-10.07-9-10.07-14h0V839c0,5.07,3.36,10.15,10.07,14,13.42,7.74,35.18,7.74,48.6,0,6.71-3.88,10.07-9,10.07-14v-2.8Z"/>
        <path class="cls-44" d="M365.68,777.63c-.8-2.74-3-5.35-6.68-7.45-9.39-5.41-24.6-5.41-34,0-3.64,2.1-5.88,4.71-6.68,7.45-1.3-4.3.94-8.88,6.68-12.19,9.38-5.41,24.59-5.41,34,0C364.74,768.75,367,773.33,365.68,777.63Z"/>
        <path class="cls-2" d="M365.68,777.63c-.82,2.71-3,5.33-6.68,7.43-9.39,5.41-24.6,5.41-34,0-3.64-2.1-5.87-4.72-6.68-7.43.8-2.74,3-5.35,6.68-7.45,9.38-5.41,24.59-5.41,34,0C362.64,772.28,364.88,774.89,365.68,777.63Z"/>
      </g>
    </g>
    <g>
      <g>
        <path class="cls-27" d="M497.05,798.12H477.18a60.58,60.58,0,0,0-33,0H424.33V804h0c0,5.37,3.55,10.74,10.65,14.84,14.2,8.2,37.22,8.2,51.42,0,7.1-4.1,10.65-9.47,10.65-14.84h0Z"/>
        <path class="cls-18" d="M486.4,813c-14.2,8.2-37.22,8.2-51.42,0s-14.2-21.49,0-29.69,37.22-8.2,51.42,0S500.6,804.76,486.4,813Z"/>
      </g>
      <g>
        <path class="cls-17" d="M495.05,706.72H476.27a57.69,57.69,0,0,0-31.17,0H426.32V797h0c0,5.07,3.35,10.16,10.07,14,13.42,7.74,35.18,7.74,48.6,0,6.71-3.87,10.06-9,10.06-14h0Z"/>
        <path class="cls-10" d="M485,720.76c-13.42,7.75-35.18,7.75-48.6,0s-13.42-20.32,0-28.06,35.18-7.75,48.6,0S498.41,713,485,720.76Z"/>
        <path class="cls-35" d="M495.05,751.38c0,5.08-3.35,10.16-10.06,14-13.42,7.75-35.18,7.75-48.6,0-6.72-3.87-10.07-8.95-10.07-14h0v2.79c0,5.08,3.35,10.16,10.07,14,13.42,7.74,35.18,7.74,48.6,0,6.71-3.88,10.06-9,10.06-14v-2.79Z"/>
        <path class="cls-35" d="M495.05,767.67c0,5.09-3.35,10.16-10.06,14.05-13.42,7.74-35.18,7.74-48.6,0-6.72-3.89-10.07-9-10.07-14.05h0v2.8c0,5.07,3.35,10.15,10.07,14,13.42,7.74,35.18,7.74,48.6,0,6.71-3.88,10.06-9,10.06-14v-2.8Z"/>
        <path class="cls-44" d="M484.36,709.11c-.81-2.74-3-5.35-6.68-7.45-9.39-5.41-24.6-5.41-34,0-3.65,2.1-5.88,4.71-6.68,7.45-1.3-4.3.93-8.88,6.68-12.19,9.38-5.41,24.59-5.41,34,0C483.42,700.23,485.66,704.81,484.36,709.11Z"/>
        <path class="cls-2" d="M484.36,709.11c-.82,2.71-3,5.33-6.68,7.43-9.39,5.41-24.6,5.41-34,0-3.65-2.1-5.87-4.72-6.68-7.43.8-2.74,3-5.35,6.68-7.45,9.38-5.41,24.59-5.41,34,0C481.32,703.76,483.55,706.37,484.36,709.11Z"/>
      </g>
    </g>
    <g>
      <g>
        <polygon class="cls-27" points="874.86 982.57 675.47 1097.68 331.12 898.88 530.51 783.76 874.86 982.57"/>
        <polygon class="cls-3" points="531.6 791.61 604.5 833.69 595.72 838.76 531.6 801.73 531.6 791.61"/>
        <polygon class="cls-3" points="531.6 801.73 353.5 904.56 344.73 899.49 531.6 791.61 531.6 801.73"/>
        <polygon class="cls-2" points="595.72 838.76 417.62 941.58 353.5 904.56 531.6 801.73 595.72 838.76"/>
        <polygon class="cls-3" points="616.83 840.81 689.73 882.89 680.95 887.94 616.83 850.93 616.83 840.81"/>
        <polygon class="cls-3" points="616.83 850.93 438.74 953.76 429.97 948.7 616.83 840.81 616.83 850.93"/>
        <polygon class="cls-2" points="680.95 887.94 502.85 990.78 438.74 953.76 616.83 850.93 680.95 887.94"/>
        <polygon class="cls-3" points="702.05 890.01 774.96 932.08 766.19 937.15 702.05 900.13 702.05 890.01"/>
        <polygon class="cls-3" points="702.05 900.13 523.97 1002.97 515.19 997.9 702.05 890.01 702.05 900.13"/>
        <polygon class="cls-2" points="766.19 937.15 588.08 1039.97 523.97 1002.97 702.05 900.13 766.19 937.15"/>
        <polygon class="cls-3" points="787.29 939.22 860.19 981.29 851.42 986.37 787.29 949.34 787.29 939.22"/>
        <polygon class="cls-3" points="787.29 949.34 609.2 1052.16 600.42 1047.1 787.29 939.22 787.29 949.34"/>
        <polygon class="cls-2" points="851.42 986.37 673.32 1089.19 609.2 1052.16 787.29 949.34 851.42 986.37"/>
        <polygon class="cls-45" points="675.47 1114.06 331.12 915.24 331.12 898.88 675.47 1097.68 675.47 1114.06"/>
        <polygon class="cls-3" points="675.47 1114.06 874.86 998.93 874.86 982.57 675.47 1097.68 675.47 1114.06"/>
      </g>
      <g>
        <polygon class="cls-27" points="675.47 1097.68 628.53 1124.77 284.18 925.97 331.12 898.87 675.47 1097.68"/>
        <polygon class="cls-45" points="628.53 1141.16 284.18 942.34 284.18 925.97 628.53 1124.77 628.53 1141.16"/>
        <polygon class="cls-3" points="628.53 1141.16 675.47 1114.04 675.47 1097.68 628.53 1124.77 628.53 1141.16"/>
      </g>
      <g>
        <polygon class="cls-27" points="628.53 1124.77 429.14 1239.88 84.8 1041.07 284.19 925.97 628.53 1124.77"/>
        <polygon class="cls-3" points="285.27 933.81 358.16 975.89 349.38 980.96 285.27 943.93 285.27 933.81"/>
        <polygon class="cls-3" points="285.27 943.93 107.17 1046.77 98.39 1041.7 285.27 933.81 285.27 943.93"/>
        <polygon class="cls-2" points="349.38 980.96 171.28 1083.78 107.17 1046.77 285.27 943.93 349.38 980.96"/>
        <polygon class="cls-3" points="370.5 983.01 443.4 1025.1 434.62 1030.15 370.5 993.13 370.5 983.01"/>
        <polygon class="cls-3" points="370.5 993.13 192.41 1095.96 183.63 1090.9 370.5 983.01 370.5 993.13"/>
        <polygon class="cls-2" points="434.62 1030.15 256.52 1132.98 192.41 1095.96 370.5 993.13 434.62 1030.15"/>
        <polygon class="cls-3" points="455.72 1032.22 528.63 1074.29 519.85 1079.36 455.72 1042.34 455.72 1032.22"/>
        <polygon class="cls-3" points="455.72 1042.34 277.63 1145.17 268.85 1140.1 455.72 1032.22 455.72 1042.34"/>
        <polygon class="cls-2" points="519.85 1079.36 341.74 1182.19 277.63 1145.17 455.72 1042.34 519.85 1079.36"/>
        <polygon class="cls-3" points="540.96 1081.42 613.86 1123.49 605.08 1128.56 540.96 1091.55 540.96 1081.42"/>
        <polygon class="cls-3" points="540.96 1091.55 362.87 1194.37 354.09 1189.31 540.96 1081.42 540.96 1091.55"/>
        <polygon class="cls-2" points="605.08 1128.56 426.98 1231.4 362.87 1194.37 540.96 1091.55 605.08 1128.56"/>
        <polygon class="cls-25" points="429.14 1256.26 84.8 1057.44 84.8 1041.07 429.14 1239.88 429.14 1256.26"/>
        <polygon class="cls-3" points="429.14 1256.26 628.53 1141.14 628.53 1124.77 429.14 1239.88 429.14 1256.26"/>
      </g>
    </g>
    <g>
      <g>
        <path class="cls-46" d="M121.25,981.46l2.21,1.27-6,10.31-2.2-1.27h0a3,3,0,0,1-1.23-2.73,9.28,9.28,0,0,1,4.2-7.28A3,3,0,0,1,121.25,981.46Z"/>
        <path class="cls-47" d="M120.48,983a9.34,9.34,0,0,0-4.21,7.29c0,2.68,1.89,3.77,4.21,2.43a9.31,9.31,0,0,0,4.21-7.3C124.69,982.78,122.81,981.68,120.48,983Z"/>
      </g>
      <path class="cls-48" d="M165.33,1050.69a10.61,10.61,0,0,1-9.63,0c-2.66-1.53-2.66-4,0-5.56a10.68,10.68,0,0,1,9.63,0C168,1046.66,168,1049.16,165.33,1050.69Z"/>
      <path class="cls-37" d="M149.61,998.88,123.5,983.71a2.49,2.49,0,0,0-2.61.22,8,8,0,0,0-3.61,6.26,2.54,2.54,0,0,0,1.11,2.37h0l26.1,15.2c5.79,3.34,10.87,12.15,10.87,18.83v21h0a2.54,2.54,0,0,0,1.49,2.1,8,8,0,0,0,7.24,0,2.54,2.54,0,0,0,1.5-2.1h0v-21C165.61,1016.23,158.58,1004.06,149.61,998.88Z"/>
    </g>
    <g>
      <g>
        <path class="cls-46" d="M239.93,912.94l2.21,1.27-6,10.31-2.2-1.27h0a3,3,0,0,1-1.23-2.72,9.28,9.28,0,0,1,4.2-7.29A3,3,0,0,1,239.93,912.94Z"/>
        <path class="cls-47" d="M239.16,914.51A9.34,9.34,0,0,0,235,921.8c0,2.68,1.89,3.77,4.21,2.43a9.3,9.3,0,0,0,4.21-7.3C243.37,914.26,241.49,913.16,239.16,914.51Z"/>
      </g>
      <path class="cls-48" d="M284,982.17a10.61,10.61,0,0,1-9.63,0c-2.66-1.53-2.66-4,0-5.56a10.68,10.68,0,0,1,9.63,0C286.67,978.14,286.67,980.64,284,982.17Z"/>
      <path class="cls-37" d="M268.29,930.36l-26.11-15.17a2.49,2.49,0,0,0-2.61.22,8,8,0,0,0-3.62,6.26,2.56,2.56,0,0,0,1.11,2.37h0l26.1,15.2C269,942.59,274,951.39,274,958.07v21h0a2.52,2.52,0,0,0,1.49,2.1,8,8,0,0,0,7.24,0,2.56,2.56,0,0,0,1.5-2.1h0v-21C284.29,947.71,277.26,935.54,268.29,930.36Z"/>
    </g>
    <g>
      <g>
        <path class="cls-46" d="M369.27,838.26l2.21,1.28-6,10.3-2.21-1.27h0a2.94,2.94,0,0,1-1.23-2.72,9.28,9.28,0,0,1,4.21-7.29A3,3,0,0,1,369.27,838.26Z"/>
        <path class="cls-47" d="M368.51,839.83a9.31,9.31,0,0,0-4.21,7.29c0,2.69,1.88,3.77,4.21,2.43a9.29,9.29,0,0,0,4.2-7.29C372.71,839.58,370.83,838.49,368.51,839.83Z"/>
      </g>
      <path class="cls-48" d="M413.35,907.49a10.61,10.61,0,0,1-9.63,0c-2.66-1.53-2.66-4,0-5.56a10.68,10.68,0,0,1,9.63,0C416,903.47,416,906,413.35,907.49Z"/>
      <path class="cls-37" d="M397.63,855.68l-26.11-15.17a2.48,2.48,0,0,0-2.6.22A8,8,0,0,0,365.3,847a2.53,2.53,0,0,0,1.11,2.37h0l26.09,15.21c5.8,3.34,10.87,12.14,10.87,18.82v21h0a2.54,2.54,0,0,0,1.49,2.09,8,8,0,0,0,7.24,0,2.55,2.55,0,0,0,1.51-2.09h0v-21C413.64,873,406.61,860.86,397.63,855.68Z"/>
    </g>
    <g>
      <g>
        <path class="cls-46" d="M488,769.74l2.21,1.28-6,10.31L482,780.05h0a2.94,2.94,0,0,1-1.23-2.72A9.28,9.28,0,0,1,485,770,3,3,0,0,1,488,769.74Z"/>
        <path class="cls-47" d="M487.18,771.31a9.32,9.32,0,0,0-4.2,7.29c0,2.69,1.88,3.77,4.2,2.43a9.28,9.28,0,0,0,4.21-7.29C491.39,771.06,489.51,770,487.18,771.31Z"/>
      </g>
      <path class="cls-48" d="M532,839a10.61,10.61,0,0,1-9.63,0c-2.66-1.53-2.66-4,0-5.56a10.68,10.68,0,0,1,9.63,0C534.69,835,534.69,837.44,532,839Z"/>
      <path class="cls-37" d="M516.31,787.16,490.2,772a2.48,2.48,0,0,0-2.6.22,8,8,0,0,0-3.62,6.26,2.53,2.53,0,0,0,1.11,2.37h0l26.1,15.21c5.79,3.34,10.87,12.14,10.87,18.82v21h0a2.54,2.54,0,0,0,1.5,2.09,8,8,0,0,0,7.23,0,2.54,2.54,0,0,0,1.5-2.09h0v-21C532.31,804.51,525.28,792.34,516.31,787.16Z"/>
    </g>
  </g>
</svg>
